<svg width="41" height="18" viewBox="0 0 41 18" fill="none" xmlns="http://www.w3.org/2000/svg">
<g transform="translate(5, 0)">
<path d="M3.33181 14.108C2.73181 14.108 2.21581 13.976 1.78381 13.712C1.35981 13.448 1.03581 13.072 0.811813 12.584C0.587813 12.096 0.475813 11.528 0.475813 10.88C0.475813 10.216 0.587813 9.64 0.811813 9.152C1.03581 8.656 1.35581 8.276 1.77181 8.012C2.18781 7.74 2.69581 7.604 3.29581 7.604C3.93581 7.604 4.46381 7.748 4.87981 8.036C5.29581 8.324 5.59581 8.724 5.77981 9.236C5.97181 9.748 6.04381 10.34 5.99581 11.012H1.42381C1.43181 11.532 1.51181 11.968 1.66381 12.32C1.82381 12.664 2.04381 12.924 2.32381 13.1C2.61181 13.268 2.94781 13.352 3.33181 13.352C3.77981 13.352 4.14781 13.248 4.43581 13.04C4.72381 12.832 4.91581 12.556 5.01181 12.212H5.94781C5.87581 12.612 5.71581 12.956 5.46781 13.244C5.22781 13.524 4.92381 13.74 4.55581 13.892C4.18781 14.036 3.77981 14.108 3.33181 14.108ZM1.43581 10.46L1.32781 10.316H5.15581L5.04781 10.484C5.05581 9.98 4.98781 9.576 4.84381 9.272C4.69981 8.96 4.49181 8.732 4.21981 8.588C3.95581 8.436 3.64781 8.36 3.29581 8.36C2.92781 8.36 2.60781 8.44 2.33581 8.6C2.06381 8.76 1.84781 8.996 1.68781 9.308C1.53581 9.612 1.45181 9.996 1.43581 10.46ZM7.35341 14V7.7H8.27741L8.31341 9.008H8.38541C8.56941 8.544 8.85741 8.196 9.24941 7.964C9.64141 7.724 10.0734 7.604 10.5454 7.604C11.0254 7.604 11.4494 7.72 11.8174 7.952C12.1854 8.184 12.4494 8.572 12.6094 9.116H12.7054C12.8894 8.612 13.1854 8.236 13.5934 7.988C14.0094 7.732 14.4734 7.604 14.9854 7.604C15.4094 7.604 15.7854 7.692 16.1134 7.868C16.4494 8.044 16.7134 8.332 16.9054 8.732C17.0974 9.124 17.1934 9.644 17.1934 10.292V14H16.2334V10.484C16.2334 10.012 16.1734 9.624 16.0534 9.32C15.9414 9.016 15.7694 8.792 15.5374 8.648C15.3134 8.496 15.0174 8.42 14.6494 8.42C14.2734 8.42 13.9414 8.516 13.6534 8.708C13.3734 8.9 13.1534 9.16 12.9934 9.488C12.8414 9.808 12.7654 10.176 12.7654 10.592V14H11.7814V10.484C11.7814 10.012 11.7254 9.624 11.6134 9.32C11.5014 9.016 11.3294 8.792 11.0974 8.648C10.8734 8.496 10.5814 8.42 10.2214 8.42C9.83741 8.42 9.50141 8.516 9.21341 8.708C8.93341 8.9 8.71341 9.16 8.55341 9.488C8.39341 9.808 8.31341 10.176 8.31341 10.592V14H7.35341ZM21.2464 14.108C20.8624 14.108 20.5064 14.032 20.1784 13.88C19.8584 13.728 19.5824 13.512 19.3504 13.232C19.1184 12.952 18.9384 12.612 18.8104 12.212C18.6904 11.812 18.6304 11.356 18.6304 10.844C18.6304 10.164 18.7384 9.584 18.9544 9.104C19.1784 8.616 19.4864 8.244 19.8784 7.988C20.2704 7.724 20.7264 7.592 21.2464 7.592C21.6064 7.592 21.9344 7.652 22.2304 7.772C22.5344 7.884 22.7904 8.044 22.9984 8.252C23.2064 8.46 23.3584 8.708 23.4544 8.996H23.5144L23.5504 7.7H24.4744V14H23.5504L23.5144 12.692H23.4544C23.3024 13.116 23.0304 13.46 22.6384 13.724C22.2544 13.98 21.7904 14.108 21.2464 14.108ZM21.5584 13.292C21.9744 13.292 22.3264 13.196 22.6144 13.004C22.9024 12.804 23.1224 12.548 23.2744 12.236C23.4264 11.924 23.5024 11.588 23.5024 11.228V10.46C23.5024 10.092 23.4224 9.752 23.2624 9.44C23.1104 9.12 22.8904 8.868 22.6024 8.684C22.3224 8.492 21.9784 8.396 21.5704 8.396C21.1704 8.396 20.8224 8.496 20.5264 8.696C20.2384 8.888 20.0144 9.168 19.8544 9.536C19.7024 9.896 19.6264 10.332 19.6264 10.844C19.6264 11.348 19.7024 11.784 19.8544 12.152C20.0144 12.52 20.2384 12.804 20.5264 13.004C20.8144 13.196 21.1584 13.292 21.5584 13.292ZM26.3026 14V7.7H27.2746V14H26.3026ZM26.8066 6.62C26.6226 6.62 26.4746 6.572 26.3626 6.476C26.2506 6.372 26.1946 6.236 26.1946 6.068C26.1946 5.9 26.2506 5.768 26.3626 5.672C26.4746 5.576 26.6226 5.528 26.8066 5.528C26.9826 5.528 27.1266 5.576 27.2386 5.672C27.3506 5.768 27.4066 5.9 27.4066 6.068C27.4066 6.236 27.3506 6.372 27.2386 6.476C27.1266 6.572 26.9826 6.62 26.8066 6.62ZM29.1034 14V5.252H30.0754V14H29.1034Z" fill="#7F7F7F"/>
</g>
</svg>
