<svg width="41" height="40" viewBox="0 0 41 40" fill="none" xmlns="http://www.w3.org/2000/svg">
<g clip-path="url(#clip0_321_6540)">
<path d="M33.9625 0H6.175C2.76464 0 0 2.69863 0 6.02757V33.1516C0 36.4806 2.76464 39.1792 6.175 39.1792H33.9625C37.3729 39.1792 40.1375 36.4806 40.1375 33.1516V6.02757C40.1375 2.69863 37.3729 0 33.9625 0Z" fill="#121923"/>
<g clip-path="url(#clip1_321_6540)">
<path d="M12.8575 16.6943H30.2476V29.2411H12.8575V16.6943Z" fill="white"/>
<path d="M9.16394 19.5743V30.2186H30.9734V8.92987H9.16394V19.5743ZM26.7389 18.7227C27.2613 18.841 27.736 19.1077 28.1033 19.4891C28.3055 19.6946 28.4813 19.9233 28.6267 20.1703C28.6267 20.1976 27.6846 20.8192 27.1105 21.1667C27.0896 21.1803 27.0058 21.0917 26.9134 20.9572C26.8086 20.7807 26.6597 20.633 26.4806 20.5278C26.3015 20.4227 26.098 20.3636 25.8892 20.356C25.2279 20.3117 24.8022 20.6506 24.8057 21.2075C24.8002 21.3462 24.8328 21.4838 24.8999 21.6061C25.0447 21.9007 25.3152 22.0761 26.1631 22.4338C27.7247 23.0895 28.3929 23.522 28.8082 24.1369C29.2723 24.8181 29.3752 25.9183 29.0612 26.7324C28.7122 27.618 27.8573 28.2192 26.6482 28.4185C26.0959 28.4802 25.538 28.4745 24.9872 28.4014C24.143 28.2656 23.3654 27.87 22.7678 27.2723C22.5672 27.056 22.1764 26.4923 22.2008 26.4514C22.2645 26.4052 22.3315 26.3637 22.4014 26.3271L23.2093 25.8911L23.8356 25.5368L23.9665 25.7259C24.1873 26.0342 24.4684 26.297 24.7935 26.4991C25.4914 26.8567 26.444 26.8073 26.9151 26.3935C27.0733 26.2418 27.172 26.0408 27.194 25.8255C27.216 25.6101 27.1599 25.3941 27.0355 25.2149C26.861 24.9782 26.5121 24.7789 25.5368 24.3634C24.4114 23.8899 23.9263 23.597 23.4832 23.1303C23.2065 22.8224 23.0023 22.4591 22.8847 22.0659C22.7971 21.6167 22.7841 21.1566 22.8463 20.7034C23.0784 19.6424 23.8932 18.9015 25.0831 18.6818C25.6342 18.6153 26.1924 18.6302 26.7389 18.7261V18.7227ZM21.6198 19.6151V20.4871H18.788V28.3606H16.7798V20.4854H13.9411V19.6339C13.9322 19.3402 13.9392 19.0463 13.962 18.7534C13.976 18.738 15.7068 18.738 17.8005 18.738H21.6093L21.6198 19.6151Z" fill="#007ACC"/>
</g>
</g>
<defs>
<clipPath id="clip0_321_6540">
<rect width="40.1375" height="39.1792" fill="white"/>
</clipPath>
<clipPath id="clip1_321_6540">
<rect width="22.3329" height="21.7997" fill="white" transform="translate(8.90222 8.68974)"/>
</clipPath>
</defs>
</svg>
